{
  "accessors": [
    {
      "bufferView": 2,
      "componentType": 5126,
      "count": 65532,
      "max": [
        27.36334228515625,
        49.090442657470703,
        13.588083267211914
      ],
      "min": [
        -21.018348693847656,
        10.610030174255371,
        -29.310867309570312
      ],
      "type": "VEC3"
    },
    {
      "bufferView": 2,
      "byteOffset": 786384,
      "componentType": 5126,
      "count": 65532,
      "max": [
        0.99995404481887817,
        0.99999129772186279,
        0.99999946355819702
      ],
      "min": [
        -0.99998575448989868,
        -0.99998927116394043,
        -0.99973541498184204
      ],
      "type": "VEC3"
    },
    {
      "bufferView": 1,
      "componentType": 5126,
      "count": 65532,
      "max": [
        0.9960140585899353,
        1.000007152557373
      ],
      "min": [
        0.00084440002683550119,
        0.0037559999618679285
      ],
      "type": "VEC2"
    },
    {
      "bufferView": 0,
      "componentType": 5125,
      "count": 289263,
      "max": [
        65531
      ],
      "min": [
        0
      ],
      "type": "SCALAR"
    },
    {
      "bufferView": 2,
      "byteOffset": 1572768,
      "componentType": 5126,
      "count": 65532,
      "max": [
        26.646411895751953,
        32.791759490966797,
        14.024905204772949
      ],
      "min": [
        -19.76983642578125,
        -3.2037196159362793,
        -33.626190185546875
      ],
      "type": "VEC3"
    },
    {
      "bufferView": 2,
      "byteOffset": 2359152,
      "componentType": 5126,
      "count": 65532,
      "max": [
        0.99972182512283325,
        0.99999582767486572,
        0.99993258714675903
      ],
      "min": [
        -0.99999034404754639,
        -0.99998307228088379,
        -0.99982935190200806
      ],
      "type": "VEC3"
    },
    {
      "bufferView": 1,
      "byteOffset": 524256,
      "componentType": 5126,
      "count": 65532,
      "max": [
        0.9944385290145874,
        0.99975442886352539
      ],
      "min": [
        0.0049376999959349632,
        0.0039022800046950579
      ],
      "type": "VEC2"
    },
    {
      "bufferView": 0,
      "byteOffset": 1157052,
      "componentType": 5125,
      "count": 299949,
      "max": [
        65531
      ],
      "min": [
        0
      ],
      "type": "SCALAR"
    },
    {
      "bufferView": 2,
      "byteOffset": 3145536,
      "componentType": 5126,
      "count": 65532,
      "max": [
        22.512357711791992,
        22.599393844604492,
        11.937188148498535
      ],
      "min": [
        -19.667146682739258,
        -3.9547369480133057,
        -41.063045501708984
      ],
      "type": "VEC3"
    },
    {
      "bufferView": 2,
      "byteOffset": 3931920,
      "componentType": 5126,
      "count": 65532,
      "max": [
        0.99999833106994629,
        0.9999392032623291,
        0.99999678134918213
      ],
      "min": [
        -0.99999845027923584,
        -0.99999904632568359,
        -0.99958962202072144
      ],
      "type": "VEC3"
    },
    {
      "bufferView": 1,
      "byteOffset": 1048512,
      "componentType": 5126,
      "count": 65532,
      "max": [
        0.99293684959411621,
        0.99983084201812744
      ],
      "min": [
        0.0012004099553450942,
        0.0035653600934892893
      ],
      "type": "VEC2"
    },
    {
      "bufferView": 0,
      "byteOffset": 2356848,
      "componentType": 5125,
      "count": 303210,
      "max": [
        65531
      ],
      "min": [
        0
      ],
      "type": "SCALAR"
    },
    {
      "bufferView": 2,
      "byteOffset": 4718304,
      "componentType": 5126,
      "count": 23650,
      "max": [
        20.315155029296875,
        8.0729341506958008,
        -16.595430374145508
      ],
      "min": [
        -18.513151168823242,
        -4.9882802963256836,
        -41.209491729736328
      ],
      "type": "VEC3"
    },
    {
      "bufferView": 2,
      "byteOffset": 5002104,
      "componentType": 5126,
      "count": 23650,
      "max": [
        0.99979978799819946,
        0.9926493763923645,
        0.99992334842681885
      ],
      "min": [
        -0.99989217519760132,
        -0.99999994039535522,
        -0.99953711032867432
      ],
      "type": "VEC3"
    },
    {
      "bufferView": 1,
      "byteOffset": 1572768,
      "componentType": 5126,
      "count": 23650,
      "max": [
        0.99278515577316284,
        0.98516577482223511
      ],
      "min": [
        0.031483780592679977,
        0.003767040092498064
      ],
      "type": "VEC2"
    },
    {
      "bufferView": 0,
      "byteOffset": 3569688,
      "componentType": 5125,
      "count": 121077,
      "max": [
        23649
      ],
      "min": [
        0
      ],
      "type": "SCALAR"
    }
  ],
  "asset": {
    "extras": {
      "author": "Sircher (https://sketchfab.com/Sircher)",
      "license": "CC-BY-4.0 (http://creativecommons.org/licenses/by/4.0/)",
      "source": "https://sketchfab.com/3d-models/medical-arts-building-chicago-usa-6f39d28e17704b749eb7476e16fa41d7",
      "title": "Medical Arts Building - Chicago, USA"
    },
    "generator": "Sketchfab-8.51.0",
    "version": "2.0"
  },
  "bufferViews": [
    {
      "buffer": 0,
      "byteLength": 4053996,
      "byteOffset": 0,
      "name": "floatBufferViews",
      "target": 34963
    },
    {
      "buffer": 0,
      "byteLength": 1761968,
      "byteOffset": 4053996,
      "byteStride": 8,
      "name": "floatBufferViews",
      "target": 34962
    },
    {
      "buffer": 0,
      "byteLength": 5285904,
      "byteOffset": 5815964,
      "byteStride": 12,
      "name": "floatBufferViews",
      "target": 34962
    }
  ],
  "buffers": [
    {
      "byteLength": 11101868,
      "uri": "scene.bin"
    }
  ],
  "extensionsUsed": [
    "KHR_materials_unlit"
  ],
  "images": [
    {
      "uri": "textures/budynek_baseColor.jpeg"
    }
  ],
  "materials": [
    {
      "doubleSided": true,
      "emissiveFactor": [
        0,
        0,
        0
      ],
      "extensions": {
        "KHR_materials_unlit": {}
      },
      "name": "budynek",
      "pbrMetallicRoughness": {
        "baseColorFactor": [
          1,
          1,
          1,
          1
        ],
        "baseColorTexture": {
          "index": 0,
          "texCoord": 0
        },
        "metallicFactor": 0,
        "roughnessFactor": 1
      }
    }
  ],
  "meshes": [
    {
      "primitives": [
        {
          "attributes": {
            "NORMAL": 1,
            "POSITION": 0,
            "TEXCOORD_0": 2
          },
          "indices": 3,
          "material": 0,
          "mode": 4
        }
      ]
    },
    {
      "primitives": [
        {
          "attributes": {
            "NORMAL": 5,
            "POSITION": 4,
            "TEXCOORD_0": 6
          },
          "indices": 7,
          "material": 0,
          "mode": 4
        }
      ]
    },
    {
      "primitives": [
        {
          "attributes": {
            "NORMAL": 9,
            "POSITION": 8,
            "TEXCOORD_0": 10
          },
          "indices": 11,
          "material": 0,
          "mode": 4
        }
      ]
    },
    {
      "primitives": [
        {
          "attributes": {
            "NORMAL": 13,
            "POSITION": 12,
            "TEXCOORD_0": 14
          },
          "indices": 15,
          "material": 0,
          "mode": 4
        }
      ]
    }
  ],
  "nodes": [
    {
      "children": [
        1
      ],
      "name": "RootNode (gltf orientation matrix)",
      "rotation": [
        -0.70710678118654746,
        -0,
        -0,
        0.70710678118654757
      ]
    },
    {
      "children": [
        2
      ],
      "matrix": [
        0.87991553544998169,
        -0.020021043717861176,
        0.47470811009407043,
        0,
        0.10751759260892868,
        0.98158502578735352,
        -0.15789502859115601,
        0,
        -0.4628051221370697,
        0.18997375667095184,
        0.86586451530456543,
        0,
        -8.2805042266845703,
        3.0517711639404297,
        0.15252643823623657,
        1
      ],
      "name": "RootNode (model correction matrix)"
    },
    {
      "children": [
        3,
        4,
        5,
        6
      ],
      "name": "budynek.obj.cleaner.materialmerger.gles"
    },
    {
      "mesh": 0,
      "name": ""
    },
    {
      "mesh": 1,
      "name": ""
    },
    {
      "mesh": 2,
      "name": ""
    },
    {
      "mesh": 3,
      "name": ""
    }
  ],
  "samplers": [
    {
      "magFilter": 9729,
      "minFilter": 9987,
      "wrapS": 10497,
      "wrapT": 10497
    }
  ],
  "scene": 0,
  "scenes": [
    {
      "name": "OSG_Scene",
      "nodes": [
        0
      ]
    }
  ],
  "textures": [
    {
      "sampler": 0,
      "source": 0
    }
  ]
}

