{
  "accessors": [
    {
      "bufferView": 2,
      "componentType": 5126,
      "count": 1440,
      "max": [
        -0.0046202498488128185,
        0.31454700231552124,
        1
      ],
      "min": [
        -0.42287999391555786,
        -0.31454700231552124,
        0.58174002170562744
      ],
      "type": "VEC3"
    },
    {
      "bufferView": 2,
      "byteOffset": 17280,
      "componentType": 5126,
      "count": 1440,
      "max": [
        1,
        1,
        1
      ],
      "min": [
        -1,
        -1,
        -1
      ],
      "type": "VEC3"
    },
    {
      "bufferView": 3,
      "componentType": 5126,
      "count": 1440,
      "max": [
        1,
        0.89503836631774902,
        1,
        1
      ],
      "min": [
        -1,
        -0.89504921436309814,
        -1,
        1
      ],
      "type": "VEC4"
    },
    {
      "bufferView": 1,
      "componentType": 5126,
      "count": 1440,
      "max": [
        0.88050001859664917,
        0.95749998092651367
      ],
      "min": [
        0.00050000002374872565,
        0.15539999306201935
      ],
      "type": "VEC2"
    },
    {
      "bufferView": 0,
      "componentType": 5125,
      "count": 5460,
      "max": [
        1439
      ],
      "min": [
        0
      ],
      "type": "SCALAR"
    },
    {
      "bufferView": 2,
      "byteOffset": 34560,
      "componentType": 5126,
      "count": 929,
      "max": [
        -0.0046202498488128185,
        0.31454700231552124,
        0.53261297941207886
      ],
      "min": [
        -0.42287999391555786,
        -0.31454700231552124,
        0.1143530011177063
      ],
      "type": "VEC3"
    },
    {
      "bufferView": 2,
      "byteOffset": 45708,
      "componentType": 5126,
      "count": 929,
      "max": [
        1,
        1,
        1
      ],
      "min": [
        -1,
        -1,
        -1
      ],
      "type": "VEC3"
    },
    {
      "bufferView": 3,
      "byteOffset": 23040,
      "componentType": 5126,
      "count": 929,
      "max": [
        1,
        0.92091566324234009,
        1,
        1
      ],
      "min": [
        -1,
        -0.92053484916687012,
        -1,
        1
      ],
      "type": "VEC4"
    },
    {
      "bufferView": 1,
      "byteOffset": 11520,
      "componentType": 5126,
      "count": 929,
      "max": [
        0.99949997663497925,
        0.95429998636245728
      ],
      "min": [
        0.0052000000141561031,
        0.00050000002374872565
      ],
      "type": "VEC2"
    },
    {
      "bufferView": 0,
      "byteOffset": 21840,
      "componentType": 5125,
      "count": 3738,
      "max": [
        928
      ],
      "min": [
        0
      ],
      "type": "SCALAR"
    },
    {
      "bufferView": 2,
      "byteOffset": 56856,
      "componentType": 5126,
      "count": 750,
      "max": [
        0.43586099147796631,
        -0.16009700298309326,
        -0.12766599655151367
      ],
      "min": [
        -0.43586099147796631,
        -0.27190598845481873,
        -1
      ],
      "type": "VEC3"
    },
    {
      "bufferView": 2,
      "byteOffset": 65856,
      "componentType": 5126,
      "count": 750,
      "max": [
        1,
        1,
        1
      ],
      "min": [
        -1,
        -1,
        -1
      ],
      "type": "VEC3"
    },
    {
      "bufferView": 3,
      "byteOffset": 37904,
      "componentType": 5126,
      "count": 750,
      "max": [
        1,
        1,
        1,
        1
      ],
      "min": [
        -0.014713308773934841,
        -1,
        -1,
        1
      ],
      "type": "VEC4"
    },
    {
      "bufferView": 1,
      "byteOffset": 18952,
      "componentType": 5126,
      "count": 750,
      "max": [
        0.99819999933242798,
        0.99949997663497925
      ],
      "min": [
        0.00050000002374872565,
        0.00050000002374872565
      ],
      "type": "VEC2"
    },
    {
      "bufferView": 0,
      "byteOffset": 36792,
      "componentType": 5125,
      "count": 1620,
      "max": [
        749
      ],
      "min": [
        0
      ],
      "type": "SCALAR"
    }
  ],
  "asset": {
    "extras": {
      "author": "adjective.george (https://sketchfab.com/adjective.george)",
      "license": "CC-BY-4.0 (http://creativecommons.org/licenses/by/4.0/)",
      "source": "https://sketchfab.com/3d-models/barrels-and-pallet-da8bc019be634479a121aede1a47faab",
      "title": "Barrels and pallet"
    },
    "generator": "Sketchfab-8.33.0",
    "version": "2.0"
  },
  "bufferViews": [
    {
      "buffer": 0,
      "byteLength": 43272,
      "byteOffset": 0,
      "name": "floatBufferViews",
      "target": 34963
    },
    {
      "buffer": 0,
      "byteLength": 24952,
      "byteOffset": 43272,
      "byteStride": 8,
      "name": "floatBufferViews",
      "target": 34962
    },
    {
      "buffer": 0,
      "byteLength": 74856,
      "byteOffset": 68224,
      "byteStride": 12,
      "name": "floatBufferViews",
      "target": 34962
    },
    {
      "buffer": 0,
      "byteLength": 49904,
      "byteOffset": 143080,
      "byteStride": 16,
      "name": "floatBufferViews",
      "target": 34962
    }
  ],
  "buffers": [
    {
      "byteLength": 192984,
      "uri": "scene.bin"
    }
  ],
  "images": [
    {
      "uri": "textures/02___Default_baseColor.jpeg"
    },
    {
      "uri": "textures/02___Default_metallicRoughness.png"
    },
    {
      "uri": "textures/02___Default_normal.png"
    },
    {
      "uri": "textures/01___Default_baseColor.png"
    },
    {
      "uri": "textures/01___Default_metallicRoughness.png"
    },
    {
      "uri": "textures/01___Default_normal.png"
    }
  ],
  "materials": [
    {
      "doubleSided": true,
      "emissiveFactor": [
        0,
        0,
        0
      ],
      "name": "02___Default",
      "normalTexture": {
        "index": 2,
        "scale": 1,
        "texCoord": 0
      },
      "occlusionTexture": {
        "index": 1,
        "strength": 1,
        "texCoord": 0
      },
      "pbrMetallicRoughness": {
        "baseColorFactor": [
          1,
          1,
          1,
          1
        ],
        "baseColorTexture": {
          "index": 0,
          "texCoord": 0
        },
        "metallicFactor": 1,
        "metallicRoughnessTexture": {
          "index": 1,
          "texCoord": 0
        },
        "roughnessFactor": 1
      }
    },
    {
      "alphaMode": "BLEND",
      "doubleSided": true,
      "emissiveFactor": [
        0,
        0,
        0
      ],
      "name": "01___Default",
      "normalTexture": {
        "index": 5,
        "scale": 1,
        "texCoord": 0
      },
      "occlusionTexture": {
        "index": 4,
        "strength": 1,
        "texCoord": 0
      },
      "pbrMetallicRoughness": {
        "baseColorFactor": [
          1,
          1,
          1,
          1
        ],
        "baseColorTexture": {
          "index": 3,
          "texCoord": 0
        },
        "metallicFactor": 1,
        "metallicRoughnessTexture": {
          "index": 4,
          "texCoord": 0
        },
        "roughnessFactor": 1
      }
    }
  ],
  "meshes": [
    {
      "name": "defaultMaterial",
      "primitives": [
        {
          "attributes": {
            "NORMAL": 1,
            "POSITION": 0,
            "TANGENT": 2,
            "TEXCOORD_0": 3
          },
          "indices": 4,
          "material": 1,
          "mode": 4
        }
      ]
    },
    {
      "name": "defaultMaterial",
      "primitives": [
        {
          "attributes": {
            "NORMAL": 6,
            "POSITION": 5,
            "TANGENT": 7,
            "TEXCOORD_0": 8
          },
          "indices": 9,
          "material": 1,
          "mode": 4
        }
      ]
    },
    {
      "name": "defaultMaterial",
      "primitives": [
        {
          "attributes": {
            "NORMAL": 11,
            "POSITION": 10,
            "TANGENT": 12,
            "TEXCOORD_0": 13
          },
          "indices": 14,
          "material": 0,
          "mode": 4
        }
      ]
    }
  ],
  "nodes": [
    {
      "children": [
        1
      ],
      "name": "RootNode (gltf orientation matrix)",
      "rotation": [
        -0.70710678118654746,
        -0,
        -0,
        0.70710678118654757
      ]
    },
    {
      "children": [
        2
      ],
      "name": "RootNode (model correction matrix)"
    },
    {
      "children": [
        3,
        5,
        7
      ],
      "matrix": [
        1,
        0,
        0,
        0,
        0,
        -4.3711390063094768e-08,
        0.999999999999999,
        0,
        0,
        -0.999999999999999,
        -4.3711390063094768e-08,
        0,
        0,
        0,
        0,
        1
      ],
      "name": "Collada visual scene group"
    },
    {
      "children": [
        4
      ],
      "name": "g"
    },
    {
      "mesh": 0,
      "name": "defaultMaterial"
    },
    {
      "children": [
        6
      ],
      "name": "g"
    },
    {
      "mesh": 1,
      "name": "defaultMaterial"
    },
    {
      "children": [
        8
      ],
      "name": "g"
    },
    {
      "mesh": 2,
      "name": "defaultMaterial"
    }
  ],
  "samplers": [
    {
      "magFilter": 9729,
      "minFilter": 9987,
      "wrapS": 10497,
      "wrapT": 10497
    }
  ],
  "scene": 0,
  "scenes": [
    {
      "name": "OSG_Scene",
      "nodes": [
        0
      ]
    }
  ],
  "textures": [
    {
      "sampler": 0,
      "source": 0
    },
    {
      "sampler": 0,
      "source": 1
    },
    {
      "sampler": 0,
      "source": 2
    },
    {
      "sampler": 0,
      "source": 3
    },
    {
      "sampler": 0,
      "source": 4
    },
    {
      "sampler": 0,
      "source": 5
    }
  ]
}

