{
  "accessors": [
    {
      "bufferView": 2,
      "componentType": 5126,
      "count": 4158,
      "max": [
        95.39312744140625,
        69.310592651367188,
        91.529861450195312
      ],
      "min": [
        -116.48020172119141,
        -134.9991455078125,
        -47.911632537841797
      ],
      "type": "VEC3"
    },
    {
      "bufferView": 2,
      "byteOffset": 49896,
      "componentType": 5126,
      "count": 4158,
      "max": [
        0.99523842334747314,
        0.99876827001571655,
        0.99996674060821533
      ],
      "min": [
        -0.99933010339736938,
        -0.99939256906509399,
        -0.98776614665985107
      ],
      "type": "VEC3"
    },
    {
      "bufferView": 1,
      "componentType": 5126,
      "count": 4158,
      "max": [
        0.96665573120117188,
        0.98086792230606079
      ],
      "min": [
        1.9133090972900391e-05,
        9.5054507255554199e-05
      ],
      "type": "VEC2"
    },
    {
      "bufferView": 0,
      "componentType": 5125,
      "count": 22458,
      "max": [
        4157
      ],
      "min": [
        0
      ],
      "type": "SCALAR"
    },
    {
      "bufferView": 2,
      "byteOffset": 99792,
      "componentType": 5126,
      "count": 1746,
      "max": [
        89.81695556640625,
        69.256011962890625,
        54.711849212646484
      ],
      "min": [
        -100.92289733886719,
        -89.815849304199219,
        -51.113025665283203
      ],
      "type": "VEC3"
    },
    {
      "bufferView": 2,
      "byteOffset": 120744,
      "componentType": 5126,
      "count": 1746,
      "max": [
        0.98131150007247925,
        0.92617142200469971,
        0.99925005435943604
      ],
      "min": [
        -0.99919241666793823,
        -0.9998469352722168,
        -0.83648467063903809
      ],
      "type": "VEC3"
    },
    {
      "bufferView": 1,
      "byteOffset": 33264,
      "componentType": 5126,
      "count": 1746,
      "max": [
        0.99996548891067505,
        0.79637640714645386
      ],
      "min": [
        0.0037492811679840088,
        7.0847570896148682e-05
      ],
      "type": "VEC2"
    },
    {
      "bufferView": 0,
      "byteOffset": 89832,
      "componentType": 5125,
      "count": 9135,
      "max": [
        1745
      ],
      "min": [
        0
      ],
      "type": "SCALAR"
    },
    {
      "bufferView": 2,
      "byteOffset": 141696,
      "componentType": 5126,
      "count": 4833,
      "max": [
        89.81695556640625,
        55.054931640625,
        87.823699951171875
      ],
      "min": [
        -116.02326202392578,
        -126.17536926269531,
        -44.563869476318359
      ],
      "type": "VEC3"
    },
    {
      "bufferView": 2,
      "byteOffset": 199692,
      "componentType": 5126,
      "count": 4833,
      "max": [
        0.99975746870040894,
        0.99971550703048706,
        0.99926340579986572
      ],
      "min": [
        -0.99954754114151001,
        -0.97313958406448364,
        -0.91752117872238159
      ],
      "type": "VEC3"
    },
    {
      "bufferView": 1,
      "byteOffset": 47232,
      "componentType": 5126,
      "count": 4833,
      "max": [
        0.99997431039810181,
        0.97261279821395874
      ],
      "min": [
        0.00011001527309417725,
        4.406273365020752e-05
      ],
      "type": "VEC2"
    },
    {
      "bufferView": 0,
      "byteOffset": 126372,
      "componentType": 5125,
      "count": 24912,
      "max": [
        4832
      ],
      "min": [
        0
      ],
      "type": "SCALAR"
    },
    {
      "bufferView": 2,
      "byteOffset": 257688,
      "componentType": 5126,
      "count": 5681,
      "max": [
        63.497337341308594,
        66.694984436035156,
        89.107818603515625
      ],
      "min": [
        -121.91722869873047,
        -143.35003662109375,
        -29.208099365234375
      ],
      "type": "VEC3"
    },
    {
      "bufferView": 2,
      "byteOffset": 325860,
      "componentType": 5126,
      "count": 5681,
      "max": [
        0.99771386384963989,
        0.99999725818634033,
        0.99947160482406616
      ],
      "min": [
        -0.99773913621902466,
        -0.99969255924224854,
        -0.93057316541671753
      ],
      "type": "VEC3"
    },
    {
      "bufferView": 1,
      "byteOffset": 85896,
      "componentType": 5126,
      "count": 5681,
      "max": [
        0.99993473291397095,
        0.97954291105270386
      ],
      "min": [
        0.024868190288543701,
        9.8690390586853027e-05
      ],
      "type": "VEC2"
    },
    {
      "bufferView": 0,
      "byteOffset": 226020,
      "componentType": 5125,
      "count": 30909,
      "max": [
        5680
      ],
      "min": [
        0
      ],
      "type": "SCALAR"
    }
  ],
  "asset": {
    "extras": {
      "author": "jeremy@avrod.org (https://sketchfab.com/Jeremy.Christopher)",
      "license": "CC-BY-4.0 (http://creativecommons.org/licenses/by/4.0/)",
      "source": "https://sketchfab.com/3d-models/nassau-mills-excavation-day-8-on-canada-7eebc3a5b2404886b0bc72cda66978e1",
      "title": "Nassau Mills – Excavation Day 8 (ON, Canada)"
    },
    "generator": "Sketchfab-8.70.0",
    "version": "2.0"
  },
  "bufferViews": [
    {
      "buffer": 0,
      "byteLength": 349656,
      "byteOffset": 0,
      "name": "floatBufferViews",
      "target": 34963
    },
    {
      "buffer": 0,
      "byteLength": 131344,
      "byteOffset": 349656,
      "byteStride": 8,
      "name": "floatBufferViews",
      "target": 34962
    },
    {
      "buffer": 0,
      "byteLength": 394032,
      "byteOffset": 481000,
      "byteStride": 12,
      "name": "floatBufferViews",
      "target": 34962
    }
  ],
  "buffers": [
    {
      "byteLength": 875032,
      "uri": "scene.bin"
    }
  ],
  "images": [
    {
      "uri": "textures/material1_baseColor.jpeg"
    },
    {
      "uri": "textures/material2_baseColor.jpeg"
    },
    {
      "uri": "textures/material0_baseColor.jpeg"
    },
    {
      "uri": "textures/material3_baseColor.jpeg"
    }
  ],
  "materials": [
    {
      "doubleSided": true,
      "emissiveFactor": [
        0,
        0,
        0
      ],
      "name": "material1",
      "pbrMetallicRoughness": {
        "baseColorFactor": [
          1,
          1,
          1,
          1
        ],
        "baseColorTexture": {
          "index": 0,
          "texCoord": 0
        },
        "metallicFactor": 0,
        "roughnessFactor": 0.95770514946237739
      }
    },
    {
      "doubleSided": true,
      "emissiveFactor": [
        0,
        0,
        0
      ],
      "name": "material2",
      "pbrMetallicRoughness": {
        "baseColorFactor": [
          1,
          1,
          1,
          1
        ],
        "baseColorTexture": {
          "index": 1,
          "texCoord": 0
        },
        "metallicFactor": 0,
        "roughnessFactor": 0.95770514946237739
      }
    },
    {
      "doubleSided": true,
      "emissiveFactor": [
        0,
        0,
        0
      ],
      "name": "material0",
      "pbrMetallicRoughness": {
        "baseColorFactor": [
          1,
          1,
          1,
          1
        ],
        "baseColorTexture": {
          "index": 2,
          "texCoord": 0
        },
        "metallicFactor": 0,
        "roughnessFactor": 0.95770514946237739
      }
    },
    {
      "doubleSided": true,
      "emissiveFactor": [
        0,
        0,
        0
      ],
      "name": "material3",
      "pbrMetallicRoughness": {
        "baseColorFactor": [
          1,
          1,
          1,
          1
        ],
        "baseColorTexture": {
          "index": 3,
          "texCoord": 0
        },
        "metallicFactor": 0,
        "roughnessFactor": 0.95770514946237739
      }
    }
  ],
  "meshes": [
    {
      "name": "Model_material1_0",
      "primitives": [
        {
          "attributes": {
            "NORMAL": 1,
            "POSITION": 0,
            "TEXCOORD_0": 2
          },
          "indices": 3,
          "material": 0,
          "mode": 4
        }
      ]
    },
    {
      "name": "Model_material2_0",
      "primitives": [
        {
          "attributes": {
            "NORMAL": 5,
            "POSITION": 4,
            "TEXCOORD_0": 6
          },
          "indices": 7,
          "material": 1,
          "mode": 4
        }
      ]
    },
    {
      "name": "Model_material0_0",
      "primitives": [
        {
          "attributes": {
            "NORMAL": 9,
            "POSITION": 8,
            "TEXCOORD_0": 10
          },
          "indices": 11,
          "material": 2,
          "mode": 4
        }
      ]
    },
    {
      "name": "Model_material3_0",
      "primitives": [
        {
          "attributes": {
            "NORMAL": 13,
            "POSITION": 12,
            "TEXCOORD_0": 14
          },
          "indices": 15,
          "material": 3,
          "mode": 4
        }
      ]
    }
  ],
  "nodes": [
    {
      "children": [
        1
      ],
      "name": "RootNode (gltf orientation matrix)",
      "rotation": [
        -0.70710678118654746,
        -0,
        -0,
        0.70710678118654757
      ]
    },
    {
      "children": [
        2
      ],
      "matrix": [
        -4.5891245583360232e-15,
        -1,
        3.4421250572069795e-15,
        0,
        -0.99998188018798828,
        -8.1436627461049099e-16,
        -0.0060163754969835281,
        0,
        0.0060163754969835281,
        -3.4534007598008287e-15,
        -0.99998188018798828,
        0,
        23.878658294677734,
        23.757747650146484,
        -40.193389892578125,
        1
      ],
      "name": "RootNode (model correction matrix)"
    },
    {
      "children": [
        3
      ],
      "matrix": [
        1,
        0,
        0,
        0,
        0,
        -1,
        0,
        0,
        0,
        0,
        -1,
        0,
        0,
        0,
        0,
        1
      ],
      "name": "NM_Day_8_GoPro_Model_FBX.fbx"
    },
    {
      "children": [
        4
      ],
      "name": "RootNode"
    },
    {
      "children": [
        5,
        6,
        7,
        8
      ],
      "name": "Model"
    },
    {
      "mesh": 0,
      "name": "Model_material1_0"
    },
    {
      "mesh": 1,
      "name": "Model_material2_0"
    },
    {
      "mesh": 2,
      "name": "Model_material0_0"
    },
    {
      "mesh": 3,
      "name": "Model_material3_0"
    }
  ],
  "samplers": [
    {
      "magFilter": 9729,
      "minFilter": 9987,
      "wrapS": 10497,
      "wrapT": 10497
    }
  ],
  "scene": 0,
  "scenes": [
    {
      "name": "OSG_Scene",
      "nodes": [
        0
      ]
    }
  ],
  "textures": [
    {
      "sampler": 0,
      "source": 0
    },
    {
      "sampler": 0,
      "source": 1
    },
    {
      "sampler": 0,
      "source": 2
    },
    {
      "sampler": 0,
      "source": 3
    }
  ]
}

