{
  "accessors": [
    {
      "bufferView": 2,
      "componentType": 5126,
      "count": 690,
      "max": [
        1,
        7,
        8.157374382019043
      ],
      "min": [
        -1,
        -1,
        0.10000000149011612
      ],
      "type": "VEC3"
    },
    {
      "bufferView": 2,
      "byteOffset": 8280,
      "componentType": 5126,
      "count": 690,
      "max": [
        0.99995958805084229,
        0.99995958805084229,
        1
      ],
      "min": [
        -0.99995958805084229,
        -0.99995958805084229,
        0.0089997220784425735
      ],
      "type": "VEC3"
    },
    {
      "bufferView": 1,
      "componentType": 5126,
      "count": 690,
      "max": [
        4.0833601951599121,
        1.4787670373916626
      ],
      "min": [
        -3.0929229259490967,
        -0.4849889874458313
      ],
      "type": "VEC2"
    },
    {
      "bufferView": 0,
      "componentType": 5125,
      "count": 2574,
      "max": [
        689
      ],
      "min": [
        0
      ],
      "type": "SCALAR"
    },
    {
      "bufferView": 2,
      "byteOffset": 16560,
      "componentType": 5126,
      "count": 3273,
      "max": [
        0.54000002145767212,
        6.5399999618530273,
        18.378765106201172
      ],
      "min": [
        -0.54000002145767212,
        -0.54000002145767212,
        2.1140310764312744
      ],
      "type": "VEC3"
    },
    {
      "bufferView": 2,
      "byteOffset": 55836,
      "componentType": 5126,
      "count": 3273,
      "max": [
        0.99995958805084229,
        0.99995958805084229,
        0.98708611726760864
      ],
      "min": [
        -0.99995958805084229,
        -0.99995958805084229,
        -0.99860024452209473
      ],
      "type": "VEC3"
    },
    {
      "bufferView": 1,
      "byteOffset": 5520,
      "componentType": 5126,
      "count": 3273,
      "max": [
        0.9999539852142334,
        0.99997198581695557
      ],
      "min": [
        2.7000000045518391e-05,
        2.7000000045518391e-05
      ],
      "type": "VEC2"
    },
    {
      "bufferView": 0,
      "byteOffset": 10296,
      "componentType": 5125,
      "count": 12870,
      "max": [
        3272
      ],
      "min": [
        0
      ],
      "type": "SCALAR"
    },
    {
      "bufferView": 2,
      "byteOffset": 95112,
      "componentType": 5126,
      "count": 2907,
      "max": [
        1.1000000238418579,
        7.0999999046325684,
        18.285150527954102
      ],
      "min": [
        -1.1000000238418579,
        -1.1000000238418579,
        -0.004999999888241291
      ],
      "type": "VEC3"
    },
    {
      "bufferView": 2,
      "byteOffset": 129996,
      "componentType": 5126,
      "count": 2907,
      "max": [
        1,
        1,
        0.99875432252883911
      ],
      "min": [
        -1,
        -1,
        -0.99965029954910278
      ],
      "type": "VEC3"
    },
    {
      "bufferView": 1,
      "byteOffset": 31704,
      "componentType": 5126,
      "count": 2907,
      "max": [
        2.9843099117279053,
        0.99990200996398926
      ],
      "min": [
        -1.9843100309371948,
        4.6000001020729542e-05
      ],
      "type": "VEC2"
    },
    {
      "bufferView": 0,
      "byteOffset": 61776,
      "componentType": 5125,
      "count": 12276,
      "max": [
        2906
      ],
      "min": [
        0
      ],
      "type": "SCALAR"
    },
    {
      "bufferView": 2,
      "byteOffset": 164880,
      "componentType": 5126,
      "count": 2082,
      "max": [
        0.29536798596382141,
        6.2953681945800781,
        18.447677612304688
      ],
      "min": [
        -0.29536798596382141,
        -0.29536798596382141,
        18.158317565917969
      ],
      "type": "VEC3"
    },
    {
      "bufferView": 2,
      "byteOffset": 189864,
      "componentType": 5126,
      "count": 2082,
      "max": [
        0.99971836805343628,
        0.99971836805343628,
        0.99949437379837036
      ],
      "min": [
        -0.99971836805343628,
        -0.99971836805343628,
        -0.96569007635116577
      ],
      "type": "VEC3"
    },
    {
      "bufferView": 1,
      "byteOffset": 54960,
      "componentType": 5126,
      "count": 2082,
      "max": [
        0.99994897842407227,
        0.99942100048065186
      ],
      "min": [
        5.5000000429572538e-05,
        0.001867000013589859
      ],
      "type": "VEC2"
    },
    {
      "bufferView": 0,
      "byteOffset": 110880,
      "componentType": 5125,
      "count": 9612,
      "max": [
        2081
      ],
      "min": [
        0
      ],
      "type": "SCALAR"
    },
    {
      "bufferView": 2,
      "byteOffset": 214848,
      "componentType": 5126,
      "count": 72,
      "max": [
        0.26090800762176514,
        6.2613821029663086,
        18.445806503295898
      ],
      "min": [
        -0.26138299703598022,
        -0.26138401031494141,
        18.427270889282227
      ],
      "type": "VEC3"
    },
    {
      "bufferView": 2,
      "byteOffset": 215712,
      "componentType": 5126,
      "count": 72,
      "max": [
        0.91239446401596069,
        0.91232520341873169,
        0.54122400283813477
      ],
      "min": [
        -0.91238284111022949,
        -0.91238284111022949,
        0.40821337699890137
      ],
      "type": "VEC3"
    },
    {
      "bufferView": 1,
      "byteOffset": 71616,
      "componentType": 5126,
      "count": 72,
      "max": [
        0.11211699992418289,
        0.79640400409698486
      ],
      "min": [
        0.097190000116825104,
        0.004548999946564436
      ],
      "type": "VEC2"
    },
    {
      "bufferView": 0,
      "byteOffset": 149328,
      "componentType": 5125,
      "count": 144,
      "max": [
        71
      ],
      "min": [
        0
      ],
      "type": "SCALAR"
    }
  ],
  "asset": {
    "extras": {
      "author": "ribot02 (https://sketchfab.com/ribot02)",
      "license": "CC-BY-4.0 (http://creativecommons.org/licenses/by/4.0/)",
      "source": "https://sketchfab.com/3d-models/simple-triple-chimney-04ec66aa997942aa911d2d4508c7dafe",
      "title": "simple triple chimney"
    },
    "generator": "Sketchfab-7.82.0",
    "version": "2.0"
  },
  "bufferViews": [
    {
      "buffer": 0,
      "byteLength": 149904,
      "byteOffset": 0,
      "name": "floatBufferViews",
      "target": 34963
    },
    {
      "buffer": 0,
      "byteLength": 72192,
      "byteOffset": 149904,
      "byteStride": 8,
      "name": "floatBufferViews",
      "target": 34962
    },
    {
      "buffer": 0,
      "byteLength": 216576,
      "byteOffset": 222096,
      "byteStride": 12,
      "name": "floatBufferViews",
      "target": 34962
    }
  ],
  "buffers": [
    {
      "byteLength": 438672,
      "uri": "scene.bin"
    }
  ],
  "images": [
    {
      "uri": "textures/AnotherBricksWall_baseColor.jpeg"
    },
    {
      "uri": "textures/Betonos_baseColor.jpeg"
    },
    {
      "uri": "textures/BrickBetonMaterial_baseColor.jpeg"
    }
  ],
  "materials": [
    {
      "doubleSided": true,
      "emissiveFactor": [
        0,
        0,
        0
      ],
      "name": "AnotherBricksWall",
      "pbrMetallicRoughness": {
        "baseColorFactor": [
          1,
          1,
          1,
          1
        ],
        "baseColorTexture": {
          "index": 0,
          "texCoord": 0
        },
        "metallicFactor": 0,
        "roughnessFactor": 0.98189069973879184
      }
    },
    {
      "doubleSided": true,
      "emissiveFactor": [
        0,
        0,
        0
      ],
      "name": "Betonos",
      "pbrMetallicRoughness": {
        "baseColorFactor": [
          1,
          1,
          1,
          1
        ],
        "baseColorTexture": {
          "index": 1,
          "texCoord": 0
        },
        "metallicFactor": 0,
        "roughnessFactor": 0.80635083268962915
      }
    },
    {
      "doubleSided": true,
      "emissiveFactor": [
        0,
        0,
        0
      ],
      "name": "BrickBetonMaterial",
      "pbrMetallicRoughness": {
        "baseColorFactor": [
          1,
          1,
          1,
          1
        ],
        "baseColorTexture": {
          "index": 2,
          "texCoord": 0
        },
        "metallicFactor": 0,
        "roughnessFactor": 0.9652854088595243
      }
    },
    {
      "doubleSided": true,
      "emissiveFactor": [
        0,
        0,
        0
      ],
      "name": "Metall",
      "pbrMetallicRoughness": {
        "baseColorFactor": [
          0.80000000000000004,
          0.80000000000000004,
          0.80000000000000004,
          1
        ],
        "metallicFactor": 0.73342225609756095,
        "roughnessFactor": 0.16901676829268297
      }
    },
    {
      "doubleSided": true,
      "emissiveFactor": [
        1,
        0,
        0
      ],
      "name": "redWarnLight",
      "pbrMetallicRoughness": {
        "baseColorFactor": [
          0.79999999999999993,
          0.0072040000000000047,
          0,
          1
        ],
        "metallicFactor": 0,
        "roughnessFactor": 0.80635083268962915
      }
    }
  ],
  "meshes": [
    {
      "primitives": [
        {
          "attributes": {
            "NORMAL": 1,
            "POSITION": 0,
            "TEXCOORD_0": 2
          },
          "indices": 3,
          "material": 0,
          "mode": 4
        }
      ]
    },
    {
      "primitives": [
        {
          "attributes": {
            "NORMAL": 5,
            "POSITION": 4,
            "TEXCOORD_0": 6
          },
          "indices": 7,
          "material": 1,
          "mode": 4
        }
      ]
    },
    {
      "primitives": [
        {
          "attributes": {
            "NORMAL": 9,
            "POSITION": 8,
            "TEXCOORD_0": 10
          },
          "indices": 11,
          "material": 2,
          "mode": 4
        }
      ]
    },
    {
      "primitives": [
        {
          "attributes": {
            "NORMAL": 13,
            "POSITION": 12,
            "TEXCOORD_0": 14
          },
          "indices": 15,
          "material": 3,
          "mode": 4
        }
      ]
    },
    {
      "primitives": [
        {
          "attributes": {
            "NORMAL": 17,
            "POSITION": 16,
            "TEXCOORD_0": 18
          },
          "indices": 19,
          "material": 4,
          "mode": 4
        }
      ]
    }
  ],
  "nodes": [
    {
      "children": [
        1
      ],
      "name": "RootNode (gltf orientation matrix)",
      "rotation": [
        -0.70710678118654746,
        -0,
        -0,
        0.70710678118654757
      ]
    },
    {
      "children": [
        2
      ],
      "name": "RootNode (model correction matrix)"
    },
    {
      "children": [
        3,
        4,
        5,
        6,
        7
      ],
      "name": "TripleSchorn.obj.cleaner.materialmerger.gles"
    },
    {
      "mesh": 0,
      "name": ""
    },
    {
      "mesh": 1,
      "name": ""
    },
    {
      "mesh": 2,
      "name": ""
    },
    {
      "mesh": 3,
      "name": ""
    },
    {
      "mesh": 4,
      "name": ""
    }
  ],
  "samplers": [
    {
      "magFilter": 9729,
      "minFilter": 9987,
      "wrapS": 10497,
      "wrapT": 10497
    }
  ],
  "scene": 0,
  "scenes": [
    {
      "name": "OSG_Scene",
      "nodes": [
        0
      ]
    }
  ],
  "textures": [
    {
      "sampler": 0,
      "source": 0
    },
    {
      "sampler": 0,
      "source": 1
    },
    {
      "sampler": 0,
      "source": 2
    }
  ]
}

